<svg width="26" height="27" viewBox="0 0 26 27" fill="none" xmlns="http://www.w3.org/2000/svg">
<path d="M24.1872 19.9759C24.1337 19.6456 23.9267 19.3634 23.6166 19.1957L19.0294 16.493L18.9917 16.4719C18.7993 16.3756 18.5869 16.3262 18.3718 16.3279C17.9875 16.3279 17.6205 16.4735 17.3657 16.7288L16.0118 18.0834C15.9539 18.1384 15.7651 18.2181 15.7078 18.221C15.6921 18.2197 14.1325 18.1074 11.2611 15.2357C8.39486 12.3701 8.27326 10.8056 8.2723 10.8056C8.2739 10.7256 8.35262 10.5375 8.40862 10.4792L9.56318 9.32498C9.9699 8.9173 10.0918 8.24146 9.85054 7.71794L7.30078 2.92018C7.1155 2.53874 6.7555 2.30322 6.35614 2.30322C6.07358 2.30322 5.80094 2.42034 5.58782 2.63314L2.44062 5.7733C2.13886 6.07346 1.87902 6.59826 1.82238 7.02066C1.79486 7.22258 1.23646 12.0424 7.84446 18.6514C13.4544 24.2607 17.8288 24.6965 19.0368 24.6965C19.1839 24.6984 19.331 24.6908 19.4771 24.6738C19.8982 24.6175 20.4224 24.3583 20.7222 24.0578L23.8669 20.9135C24.1235 20.6555 24.2406 20.3147 24.1872 19.9759Z" fill="#F5F5F5"/>
</svg>
